<svg width="272" height="60" viewBox="0 0 272 60" fill="none" xmlns="http://www.w3.org/2000/svg">
<path d="M271.731 21.1139C271.731 26.7264 271.464 32.7398 270.929 39.154C270.439 45.6128 269.816 50.5571 269.059 53.987C268.212 57.9959 266.208 60.0003 263.045 60.0003C257.255 60.0003 254.359 56.1251 254.359 48.3745C254.359 46.2364 254.938 44.1652 256.096 42.1607C257.299 40.1563 258.635 39.154 260.105 39.154C261.62 39.154 262.377 39.8222 262.377 41.1585C262.377 41.4703 262.065 41.8489 261.442 42.2943C259.393 43.7197 258.368 45.7019 258.368 48.2409C258.368 50.8244 258.68 52.762 259.304 54.0538C259.972 55.3456 261.219 55.9914 263.045 55.9914C264.114 55.9914 264.849 54.9669 265.25 52.9179C266.096 48.9536 266.787 42.673 267.321 34.0761C267.5 31.3589 267.566 29.7108 267.522 29.1318C266.586 30.4681 265.896 31.3144 265.451 31.6707C265.05 31.9825 264.626 32.3166 264.181 32.673C263.78 32.9848 263.379 33.252 262.978 33.4747C262.622 33.6529 262.154 33.8756 261.575 34.1429C261.041 34.3656 260.484 34.5438 259.905 34.6774C258.569 34.9892 257.165 35.1451 255.696 35.1451C253.335 35.1451 251.642 33.8088 250.618 31.1362C249.237 27.6173 248.279 23.1629 247.745 17.7732C247.7 17.5059 247.678 17.1496 247.678 16.7041C247.678 15.6351 248.301 15.1006 249.549 15.1006C250.84 15.1006 251.553 15.7687 251.687 17.105C251.998 20.0449 252.511 23.1184 253.223 26.3255C253.981 29.5327 254.805 31.1362 255.696 31.1362C258.591 31.1362 260.84 30.4012 262.444 28.9313C264.047 27.4614 265.807 24.8556 267.722 21.1139C268.257 19.7776 268.925 19.1095 269.727 19.1095C271.063 19.1095 271.731 19.7776 271.731 21.1139Z" fill="#e11d48"/>
<path d="M232.978 23.7866C236.007 23.7866 237.789 25.9246 238.323 30.2008C238.368 30.4235 238.413 30.8244 238.457 31.4035C238.546 31.938 238.613 32.3612 238.658 32.673C238.702 32.9848 238.769 33.2298 238.858 33.4079C238.858 33.5861 238.903 33.7643 238.992 33.9424C239.125 34.2988 239.348 34.477 239.66 34.477C240.506 34.477 241.597 34.2543 242.934 33.8088C244.27 33.3634 245.005 33.1407 245.139 33.1407C246.475 33.1407 247.143 33.8088 247.143 35.1451C247.143 36.1251 246.475 36.8378 245.139 37.2832C242.733 38.085 240.862 38.4859 239.526 38.4859C236.631 38.4859 234.894 35.9024 234.315 30.7353C234.047 28.7754 233.602 27.7955 232.978 27.7955C231.642 27.7955 229.949 29.3545 227.9 32.4725C227.143 33.6306 226.141 34.6997 224.894 35.6796C223.646 36.6596 222.377 37.1496 221.085 37.1496C219.793 37.1496 218.769 36.7041 218.012 35.8133C217.254 34.9224 216.764 34.0761 216.542 33.2743C216.274 32.3834 215.851 30.4458 215.272 27.4614C214.693 24.477 214.292 22.8957 214.07 22.7175C213.891 22.5393 213.735 22.4502 213.602 22.4502C212.978 22.4502 212.421 22.8511 211.931 23.6529C211.486 24.4102 210.974 25.4792 210.395 26.86C209.816 28.2409 209.259 29.6663 208.724 31.1362C208.234 32.5616 207.833 33.6306 207.522 34.3433C207.21 35.0115 206.787 35.791 206.252 36.6819C205.272 38.33 203.936 39.154 202.243 39.154C201.085 39.154 200.105 38.7531 199.303 37.9514C198.502 37.1496 197.878 36.1251 197.433 34.8779C196.631 32.3834 196.208 29.8445 196.163 27.2609C196.163 24.6329 195.896 22.6284 195.361 21.2476C194.871 19.8222 194.27 19.1095 193.557 19.1095C191.241 19.1095 189.504 20.5349 188.346 23.3857C187.811 24.7665 187.232 26.7264 186.609 29.2654C185.718 32.6952 183.602 35.1228 180.261 36.5482C179.548 36.9491 178.813 37.1496 178.056 37.1496C176.72 37.1496 176.052 36.4814 176.052 35.1451C176.052 34.2988 176.72 33.6084 178.056 33.0739C178.591 32.8511 178.88 32.7398 178.925 32.7398C179.014 32.6952 179.192 32.6061 179.459 32.4725C179.727 32.3389 179.905 32.2498 179.994 32.2053C180.083 32.1162 180.239 32.0048 180.462 31.8712C180.729 31.693 180.907 31.5371 180.996 31.4035C181.13 31.2253 181.286 31.0249 181.464 30.8021C181.686 30.5794 181.842 30.3567 181.931 30.134C182.288 29.4658 182.6 28.5972 182.867 27.5282C183.134 26.4592 183.379 25.5683 183.602 24.8556C183.825 24.1429 184.248 23.0516 184.871 21.5817C185.495 20.0672 186.141 18.9313 186.809 18.1741C187.477 17.4168 188.39 16.7264 189.548 16.1028C190.751 15.4347 192.199 15.1006 193.891 15.1006C195.629 15.1006 197.099 16.1028 198.301 18.1073C199.548 20.0672 200.172 23.0739 200.172 27.1273C200.172 28.5527 200.328 30.2453 200.64 32.2053C200.996 34.1652 201.531 35.1451 202.243 35.1451C202.6 35.1451 202.978 34.6774 203.379 33.742C203.78 32.762 204.114 31.938 204.381 31.2698C204.649 30.5571 204.96 29.7108 205.317 28.7309C206.653 24.9447 207.967 22.2943 209.259 20.7799C210.551 19.2209 211.998 18.4413 213.602 18.4413C215.473 18.4413 216.809 19.2877 217.611 20.9803C218.279 22.4502 218.747 23.8979 219.014 25.3233C219.905 30.5349 220.551 33.1407 220.952 33.1407C222.288 33.1407 223.98 31.5816 226.029 28.4636C226.787 27.3055 227.789 26.2364 229.036 25.2565C230.283 24.2765 231.597 23.7866 232.978 23.7866Z" fill="#e11d48"/>
<path d="M161.457 30.8021C165.912 28.0404 168.139 25.2565 168.139 22.4502C168.139 21.5594 167.805 20.7799 167.136 20.1117C166.468 19.4436 165.6 19.1095 164.531 19.1095C163.462 19.1095 162.571 19.8445 161.858 21.3144C161.145 22.7843 160.789 24.3879 160.789 26.1251C160.789 27.8623 161.012 29.4213 161.457 30.8021ZM140.744 39.154C139.408 39.154 138.74 38.4859 138.74 37.1496C138.74 35.8133 139.43 35.1451 140.811 35.1451C142.192 35.1451 143.528 34.5661 144.82 33.4079C146.112 32.2498 146.758 30.7576 146.758 28.9313C146.758 27.105 145.6 25.0115 143.283 22.6507C141.012 20.2899 138.54 19.1095 135.867 19.1095C133.194 19.1095 130.21 20.3567 126.914 22.8511C123.662 25.3456 122.036 27.8845 122.036 30.4681C122.036 31.4035 122.259 32.3166 122.704 33.2075C123.15 34.0984 123.373 34.7442 123.373 35.1451C123.373 36.4814 122.704 37.1496 121.368 37.1496C120.655 37.1496 119.92 36.3923 119.163 34.8779C118.406 33.3634 118.027 31.8935 118.027 30.4681C118.027 26.8155 120.054 23.3411 124.108 20.0449C128.161 16.7487 132.059 15.1006 135.8 15.1006C139.542 15.1006 142.972 16.6819 146.09 19.8445C149.208 23.007 150.767 25.9692 150.767 28.7309C150.767 31.4926 149.898 33.8088 148.161 35.6796C151.457 35.3233 154.687 34.3433 157.849 32.7398C157.136 30.6908 156.78 28.33 156.78 25.6574C156.78 22.9848 157.493 20.5572 158.918 18.3745C160.388 16.1919 162.237 15.1006 164.464 15.1006C166.691 15.1006 168.517 15.8356 169.943 17.3055C171.413 18.7309 172.148 20.4458 172.148 22.4502C172.148 26.8155 169.163 30.8244 163.194 34.477C163.773 35.3678 165.065 35.8133 167.07 35.8133C169.074 35.8133 172.281 35.0783 176.691 33.6084C177.626 33.2966 178.161 33.1407 178.295 33.1407C179.631 33.1407 180.299 33.8088 180.299 35.1451C180.299 36.1251 179.631 36.8378 178.295 37.2832C173.217 38.9759 169.609 39.8222 167.471 39.8222C163.818 39.8222 161.212 38.6641 159.653 36.3478C158.495 36.9269 156.513 37.6618 153.707 38.5527C150.945 39.399 148.406 39.8222 146.09 39.8222C145.332 39.8222 144.353 39.7108 143.15 39.4881C141.947 39.2654 141.145 39.154 140.744 39.154Z" fill="#e11d48"/>
<path d="M112.596 2.60596C113.309 2.60596 114.044 2.94003 114.801 3.60819C115.558 4.2318 115.937 4.89994 115.937 5.61264C115.937 6.28079 115.625 6.79304 115.002 7.14939C114.423 7.50573 113.777 7.68391 113.064 7.68391C112.351 7.68391 111.75 7.37211 111.26 6.7485C110.815 6.08035 110.592 5.36765 110.592 4.61041C110.592 3.27411 111.26 2.60596 112.596 2.60596ZM58.877 19.3097C58.6097 18.6861 58.4761 17.9512 58.4761 17.1048C58.4761 15.7685 59.1442 15.1004 60.4805 15.1004C61.015 15.1004 61.4382 15.2563 61.75 15.5681C62.0618 15.8354 62.3068 16.3476 62.485 17.1048C64.2222 24.0982 65.7589 28.8643 67.0952 31.4033C68.4315 33.8977 69.9237 35.1449 71.5718 35.1449C73.7545 35.1449 75.5807 34.0982 77.0507 32.0046C78.5652 29.9111 80.2133 26.6371 81.995 22.1828C82.6186 20.5792 83.5095 19.332 84.6676 18.4411C85.8703 17.5503 87.1398 17.1048 88.4761 17.1048L94.5562 18.1071C98.5651 18.7752 103.242 19.1093 108.587 19.1093C110.369 19.1093 111.817 19.6661 112.93 20.7797C114.044 21.8933 114.601 23.185 114.601 24.655C114.601 26.0803 114.378 27.8843 113.933 30.067C113.487 32.2051 113.264 34.1204 113.264 35.8131L113.933 39.1538C113.933 40.4901 113.264 41.1583 111.928 41.1583C111.082 41.1583 110.414 40.4901 109.924 39.1538C109.478 38.0402 109.256 36.7039 109.256 35.1449C109.256 33.5859 109.478 31.6928 109.924 29.4656C110.369 27.2385 110.592 25.7908 110.592 25.1227C110.592 23.7864 109.924 23.1182 108.587 23.1182C101.55 23.1182 95.7144 22.6282 91.0819 21.6483C89.5674 21.2919 88.7211 21.1137 88.5429 21.1137C87.3847 21.1137 86.4271 21.9823 85.6698 23.7195C83.5317 28.8866 81.8168 32.3387 80.5251 34.0759C78.1197 37.4612 75.1353 39.1538 71.5718 39.1538C70.1019 39.1538 68.7211 38.7084 67.4293 37.8175C66.1821 36.9267 65.1576 35.8353 64.3558 34.5436C63.4649 33.2518 62.6632 31.626 61.9505 29.6661C60.9705 27.1717 59.946 23.7195 58.877 19.3097Z" fill="#e11d48"/>
<path d="M33.4615 35.2787C33.4169 35.2787 33.0828 35.4569 32.4592 35.8133C30.8557 36.7041 29.6753 37.1496 28.918 37.1496C27.5817 37.1496 26.9136 36.4814 26.9136 35.1451C26.9136 34.2988 27.5817 33.6084 28.918 33.0739C29.1407 32.9848 29.6753 32.7175 30.5216 32.2721C31.3679 31.8266 31.8579 31.5594 31.9915 31.4703C31.8134 31.0694 31.7243 30.4681 31.7243 29.6663C31.7243 25.6574 33.1274 22.2275 35.9336 19.3768C38.7398 16.526 41.3011 15.1006 43.6174 15.1006C45.9336 15.1006 47.7599 15.6574 49.0962 16.771C50.4325 17.84 51.1006 19.154 51.1006 20.7131C51.1006 22.2275 50.7443 23.5416 50.0316 24.6551C49.3189 25.7687 48.2053 26.86 46.6908 27.9291C44.5973 29.4436 41.5461 31.203 37.5372 33.2075C39.3189 34.4992 41.7911 35.1451 44.9537 35.1451C48.1162 35.1451 51.2343 34.6329 54.3078 33.6084C55.2432 33.2966 55.7777 33.1407 55.9113 33.1407C57.2476 33.1407 57.9158 33.8088 57.9158 35.1451C57.9158 36.1251 57.2476 36.8378 55.9113 37.2832C52.1697 38.5304 48.5617 39.154 45.0873 39.154C40.143 39.154 36.2677 37.8623 33.4615 35.2787ZM35.7332 29.6663C43.3056 25.8801 47.0917 23.0293 47.0917 21.1139C47.0917 19.7776 45.9782 19.1095 43.751 19.1095C42.4147 19.1095 40.7443 20.1785 38.7399 22.3166C36.7354 24.4102 35.7332 26.86 35.7332 29.6663Z" fill="#e11d48"/>
<path d="M3.60802 39.1537C3.11804 39.1537 2.69488 38.9309 2.33853 38.4855C1.98218 37.9955 1.73719 37.5501 1.60356 37.1492C0.534521 32.873 0 27.7505 0 21.7817C0 18.3073 0.690423 14.9443 2.07127 11.6926C3.45211 8.44098 5.61247 5.67929 8.55234 3.40757C11.4922 1.13586 14.833 0 18.5746 0C22.3608 0 25.3229 0.890869 27.461 2.67261C29.6436 4.4098 30.735 6.99331 30.735 10.4232C30.735 17.9955 25.8352 21.7817 16.0356 21.7817C21.5145 25.2116 25.7461 28.6414 28.7305 32.0713C30.0668 33.6748 30.735 34.6993 30.735 35.1448C30.735 36.4811 30.0668 37.1492 28.7305 37.1492C28.196 37.1492 27.7505 36.971 27.3942 36.6147C27.0379 36.2583 26.5924 35.7684 26.0579 35.1448C24.1871 32.9621 22.1826 31.0468 20.0445 29.3987C17.951 27.7505 14.3875 25.3897 9.35412 22.3163C8.01781 21.4699 7.34966 20.6236 7.34966 19.7773C7.34966 18.441 8.01781 17.7728 9.35412 17.7728H16.0356C19.7327 17.7728 22.4276 17.2383 24.1203 16.1693C25.8574 15.1002 26.7261 13.3408 26.7261 10.8909C26.7261 8.39643 26.0802 6.63697 24.7884 5.61247C23.5412 4.54343 21.6258 4.00891 19.0423 4.00891C16.4588 4.00891 14.2093 4.54343 12.294 5.61247C10.3341 6.72605 8.77505 8.17372 7.61692 9.95545C5.21158 13.608 4.00891 17.5501 4.00891 21.7817C4.00891 27.3051 4.49888 32.0935 5.47884 36.147C5.56793 36.4142 5.61247 36.7483 5.61247 37.1492C5.61247 38.4855 4.94432 39.1537 3.60802 39.1537Z" fill="#e11d48"/>
</svg>
