<svg xmlns="http://www.w3.org/2000/svg" width="1200" height="630" viewBox="0 0 1200 630" fill="none">
  <defs>
    <linearGradient id="bg" x1="600" y1="0" x2="600" y2="630" gradientUnits="userSpaceOnUse">
      <stop stop-color="#FAFAFA"/>
      <stop offset="1" stop-color="#F4F4F5"/>
    </linearGradient>
    <radialGradient id="glow" cx="0" cy="0" r="1" gradientUnits="userSpaceOnUse" gradientTransform="translate(1095 30) rotate(124) scale(470 560)">
      <stop stop-color="#FB7185" stop-opacity="0.2"/>
      <stop offset="1" stop-color="#FB7185" stop-opacity="0"/>
    </radialGradient>
    <linearGradient id="preview" x1="660" y1="154" x2="910" y2="510" gradientUnits="userSpaceOnUse">
      <stop stop-color="#F4EFE6"/>
      <stop offset="1" stop-color="#DCE9E5"/>
    </linearGradient>
    <pattern id="grid" width="40" height="40" patternUnits="userSpaceOnUse">
      <path d="M40 0H0V40" fill="none" stroke="#18181B" stroke-opacity="0.04"/>
    </pattern>
    <filter id="shadow" x="540" y="32" width="660" height="590" filterUnits="userSpaceOnUse">
      <feDropShadow dx="0" dy="22" stdDeviation="22" flood-color="#18181B" flood-opacity="0.15"/>
    </filter>
    <clipPath id="workspace">
      <rect x="582" y="68" width="570" height="500" rx="24"/>
    </clipPath>
  </defs>

  <rect width="1200" height="630" fill="url(#bg)"/>
  <rect width="1200" height="630" fill="url(#glow)"/>
  <rect width="1200" height="630" fill="url(#grid)"/>

  <image href="logo.svg" x="70" y="68" width="218" height="48"/>

  <path d="M58 190C154 181 324 184 515 193L508 266C350 273 178 270 62 260C57 238 56 213 58 190Z" fill="#FEF08A" fill-opacity="0.72"/>
  <text x="70" y="252" fill="#18181B" font-family="Arial, Helvetica, sans-serif" font-size="66" font-weight="700" letter-spacing="-2.8">Visual feedback.</text>
  <text x="70" y="332" fill="#18181B" font-family="Arial, Helvetica, sans-serif" font-size="66" font-weight="700" letter-spacing="-2.8">With your agent.</text>

  <g filter="url(#shadow)">
    <rect x="582" y="68" width="570" height="500" rx="24" fill="#FFFFFF"/>
  </g>
  <g clip-path="url(#workspace)">
    <rect x="582" y="68" width="570" height="500" fill="#FFFFFF"/>

    <!-- Review header -->
    <rect x="582" y="68" width="570" height="54" fill="#FFFFFF"/>
    <path d="M582 121.5H1152" stroke="#E4E4E7"/>
    <rect x="604" y="87" width="18" height="18" rx="5" fill="#E11D48"/>
    <path d="M609 101V92H613.2C616 92 617.5 93.4 617.5 95.4C617.5 97.4 616 98.7 613.2 98.7H609" stroke="white" stroke-width="1.6" stroke-linecap="round" stroke-linejoin="round"/>
    <rect x="634" y="88" width="116" height="7" rx="3.5" fill="#27272A"/>
    <rect x="634" y="101" width="70" height="5" rx="2.5" fill="#A1A1AA"/>
    <circle cx="1114" cy="95" r="3" fill="#D4D4D8"/>
    <circle cx="1125" cy="95" r="3" fill="#D4D4D8"/>

    <!-- Screenshot canvas -->
    <rect x="602" y="141" width="354" height="399" rx="16" fill="#F4F4F5" stroke="#E4E4E7"/>
    <rect x="615" y="154" width="328" height="373" rx="10" fill="#FFFFFF"/>
    <rect x="615" y="154" width="328" height="36" rx="10" fill="#163F3A"/>
    <circle cx="634" cy="172" r="7" fill="#D8A62F"/>
    <rect x="648" y="168" width="54" height="7" rx="3.5" fill="#FFFFFF" fill-opacity="0.88"/>
    <rect x="872" y="168" width="52" height="7" rx="3.5" fill="#FFFFFF" fill-opacity="0.42"/>

    <rect x="615" y="190" width="328" height="152" fill="url(#preview)"/>
    <rect x="636" y="217" width="88" height="7" rx="3.5" fill="#8A6212" fill-opacity="0.8"/>
    <rect x="636" y="235" width="167" height="13" rx="6.5" fill="#163F3A"/>
    <rect x="636" y="256" width="142" height="13" rx="6.5" fill="#163F3A"/>
    <rect x="636" y="282" width="116" height="6" rx="3" fill="#34786E" fill-opacity="0.58"/>
    <rect x="820" y="214" width="95" height="96" rx="14" fill="#FFFFFF" fill-opacity="0.72"/>
    <path d="M842 286C847 247 859 224 869 221C883 218 891 239 894 286" stroke="#34786E" stroke-width="7" stroke-linecap="round"/>
    <circle cx="866" cy="253" r="7" fill="#D8A62F"/>

    <rect x="636" y="369" width="92" height="9" rx="4.5" fill="#27272A"/>
    <rect x="636" y="388" width="125" height="6" rx="3" fill="#A1A1AA"/>
    <rect x="636" y="403" width="112" height="6" rx="3" fill="#D4D4D8"/>
    <rect x="779" y="369" width="64" height="9" rx="4.5" fill="#27272A"/>
    <rect x="779" y="388" width="118" height="6" rx="3" fill="#A1A1AA"/>
    <rect x="779" y="403" width="96" height="6" rx="3" fill="#D4D4D8"/>
    <rect x="636" y="450" width="261" height="54" rx="10" fill="#163F3A"/>
    <rect x="652" y="465" width="84" height="7" rx="3.5" fill="#FFFFFF" fill-opacity="0.9"/>
    <rect x="652" y="480" width="154" height="5" rx="2.5" fill="#FFFFFF" fill-opacity="0.4"/>

    <!-- Review marks -->
    <rect x="629" y="227" width="180" height="69" rx="8" fill="#FB7185" fill-opacity="0.1" stroke="#F43F5E" stroke-width="3"/>
    <circle cx="627" cy="226" r="15" fill="#E11D48" stroke="#FFFFFF" stroke-width="3"/>
    <text x="627" y="230" fill="#FFFFFF" font-family="Arial, Helvetica, sans-serif" font-size="10" font-weight="700" text-anchor="middle">M1</text>
    <rect x="772" y="360" width="137" height="61" rx="8" fill="#FB7185" fill-opacity="0.1" stroke="#F43F5E" stroke-width="3"/>
    <circle cx="909" cy="360" r="15" fill="#E11D48" stroke="#FFFFFF" stroke-width="3"/>
    <text x="909" y="364" fill="#FFFFFF" font-family="Arial, Helvetica, sans-serif" font-size="10" font-weight="700" text-anchor="middle">M2</text>

    <!-- Marks panel -->
    <rect x="976" y="141" width="156" height="399" rx="16" fill="#FAFAFA" stroke="#E4E4E7"/>
    <text x="994" y="170" fill="#27272A" font-family="Arial, Helvetica, sans-serif" font-size="13" font-weight="700">My marks</text>
    <rect x="994" y="185" width="120" height="112" rx="12" fill="#FFFFFF" stroke="#E4E4E7"/>
    <circle cx="1011" cy="205" r="11" fill="#E11D48"/>
    <text x="1011" y="209" fill="#FFFFFF" font-family="Arial, Helvetica, sans-serif" font-size="8" font-weight="700" text-anchor="middle">M1</text>
    <rect x="1029" y="200" width="53" height="7" rx="3.5" fill="#3F3F46"/>
    <rect x="1005" y="226" width="96" height="6" rx="3" fill="#71717A"/>
    <rect x="1005" y="240" width="83" height="6" rx="3" fill="#A1A1AA"/>
    <rect x="1005" y="267" width="42" height="14" rx="7" fill="#FFE4E6"/>

    <rect x="994" y="311" width="120" height="112" rx="12" fill="#FFFFFF" stroke="#E4E4E7"/>
    <circle cx="1011" cy="331" r="11" fill="#E11D48"/>
    <text x="1011" y="335" fill="#FFFFFF" font-family="Arial, Helvetica, sans-serif" font-size="8" font-weight="700" text-anchor="middle">M2</text>
    <rect x="1029" y="326" width="62" height="7" rx="3.5" fill="#3F3F46"/>
    <rect x="1005" y="352" width="91" height="6" rx="3" fill="#71717A"/>
    <rect x="1005" y="366" width="73" height="6" rx="3" fill="#A1A1AA"/>
    <rect x="1005" y="393" width="35" height="14" rx="7" fill="#FEF3C7"/>
  </g>
  <rect x="582.5" y="68.5" width="569" height="499" rx="23.5" stroke="#D4D4D8"/>
</svg>
